<svg xmlns="http://www.w3.org/2000/svg" viewBox="0 0 114 92" fill="none" class="injected-svg" data-src="https://cdn.vodafone.co.uk/mobile/phones/pay-monthly-contracts/assets//ws10/icons/UkBrandIcons/5g-ultra.svg" xmlns:xlink="http://www.w3.org/1999/xlink"><g clip-path="url(#c2fe42ba-5dfb-4ea2-ac0a-d38be3b61dc7__a-1)" fill="#E60000"><path d="m17.255 65.311-3.017 15.596c-.246 1.27-.75 2.258-1.502 2.935-.754.68-1.683 1.01-2.839 1.01-1.155 0-1.897-.31-2.367-.948-.476-.642-.596-1.6-.354-2.845l3.046-15.748H3.325L.229 81.313c-.291 1.506-.305 2.872-.04 4.06.268 1.204.793 2.238 1.56 3.073.765.835 1.763 1.483 2.967 1.929 1.193.44 2.586.664 4.143.664 1.558 0 2.985-.222 4.336-.659a12.069 12.069 0 0 0 3.634-1.884 10.885 10.885 0 0 0 2.681-3c.718-1.175 1.227-2.532 1.518-4.031l3.124-16.154h-6.898.001Zm18.099 0h-6.898L23.58 90.523H41l1.211-6.262H31.689l3.665-18.95Zm28.124 6.262 1.211-6.262H44.712l-1.21 6.262h6.557l-3.665 18.95h6.935L56.486 74.2l-5.483-2.627h12.475Zm17.623 9.147a2.665 2.665 0 0 0-.612-.813l-.57-.514.654-.403c.71-.437 1.38-.982 1.991-1.616 1-1.038 1.672-2.408 1.994-4.072.254-1.313.215-2.585-.114-3.779-.338-1.226-1.17-2.242-2.47-3.018l-.01-.007c-1.253-.787-2.887-1.186-4.854-1.186h-9.947l-4.876 25.211h6.787l1.629-8.421h1.836c.759 0 1.33.177 1.697.526.252.239.566.823.635 2.244l.509 5.651h6.909l-.527-6.841c-.107-1.3-.324-2.271-.66-2.962Zm-3.047-6.664c-.233.956-.695 1.696-1.379 2.2-.681.503-1.65.748-2.96.748h-2.937l1.523-6.27h2.692c1.367 0 2.26.283 2.734.865.472.581.581 1.407.327 2.457Zm19.769-8.745L83.785 90.522h7.24l2.334-4.21h7.456l.704 4.21h7.173l-4.209-25.21h-6.66ZM94.87 81.092l5.615-10.366.578 10.366H94.87Zm3.899-36.957-6.446 3.146-1.639 8.2-.57.11c-2.539.488-5.242.736-8.03.736-2.123 0-4.047-.45-5.719-1.337-1.699-.901-3.069-2.302-4.072-4.163-.979-1.809-1.589-4.07-1.811-6.722-.219-2.607.024-5.702.724-9.2 1.426-7.134 3.825-12.493 7.132-15.928 3.36-3.49 7.23-5.259 11.506-5.259 3.236 0 5.716.81 7.374 2.404 1.38 1.33 2.624 3.113 3.709 5.314l12.717-8.595c-1.953-3.985-4.55-7.126-7.727-9.343-3.334-2.322-8.084-3.5-14.119-3.5-4.4 0-9.174.986-14.186 2.928-4.816 1.858-9.486 5.646-13.882 11.262-3.937 5.138-6.804 11.533-8.515 18.999l-.502 2.188-1.094-1.96c-1.311-2.35-3.496-4.23-6.493-5.587-3.96-1.794-9.197-2.703-15.565-2.703h-1.053l1.396-6.984-7.016-3.426h18.967l-.007.033h14.376L60.8 1.852H21.68l-7.11 35.576a62.889 62.889 0 0 1 9.064-.644c2.247 0 4.695.285 7.278.844 2.674.58 4.891 1.672 6.593 3.247 1.372 1.273 2.079 2.802 2.103 4.544l.012.9-.076-.002c-.1.886-.371 2.32-1.1 3.78a.362.362 0 0 1-.015.03l-.017.033c-.158.281-.332.563-.518.84-.912 1.358-2.423 2.564-4.493 3.589a14.508 14.508 0 0 1-6.49 1.53c-2.854 0-5.773-.648-8.678-1.925-2.562-1.128-4.86-2.694-6.586-4.474L4.779 60.642h43.375a28.462 28.462 0 0 0 2.807-3.549 24.516 24.516 0 0 0 2.116-3.89l1.01-2.321.619 2.454c.685 2.713 1.743 5.136 3.145 7.203l.07.103h46.426l6.705-31.253H87.165l-3.442 14.745H98.77l-.001.002Z"></path></g><defs><clipPath id="c2fe42ba-5dfb-4ea2-ac0a-d38be3b61dc7__a-1"><path fill="#fff" d="M0 0h113.643v91.04H0z"></path></clipPath></defs></svg>