<svg xmlns="http://www.w3.org/2000/svg" fill="none" stroke="black" viewBox="0 0 192 192" class="injected-svg" data-src="https://cdn.vodafone.co.uk/mobile/phones/pay-monthly-contracts/assets//ws10/icons/SourceSystemIcons/delivery.svg" xmlns:xlink="http://www.w3.org/1999/xlink"><path d="M124.72 124h-23.36m23.36 0c-.48 1.28-.72 2.64-.72 4 0 6.64 5.36 12 12 12s12-5.36 12-12c0-1.36-.24-2.72-.72-4m-22.56 0c1.68-4.8 6.24-8 11.28-8s9.6 3.2 11.28 8M116 60h22.16C156.88 60 172 75.12 172 93.84V112c0 6.64-5.36 12-12 12h-12.72m-88 0H116V44H36c-8.88 0-16 7.12-16 16v46.72c0 9.28 7.44 16.96 16.72 17.28m22.56 0c-1.68-4.8-6.24-8-11.28-8s-9.6 3.2-11.28 8m22.56 0c.48 1.28.72 2.64.72 4 0 6.64-5.36 12-12 12s-12-5.36-12-12c0-1.36.24-2.72.72-4" vector-effect="non-scaling-stroke"></path></svg>